<svg width="18" height="20" viewBox="0 0 18 20" fill="none" xmlns="http://www.w3.org/2000/svg">
<path d="M16.6596 9.46634C16.7992 9.60977 16.8766 9.80251 16.8748 10.0026C16.8731 10.2028 16.7924 10.3941 16.6503 10.5351L8.96277 18.2132C7.97815 19.1978 6.64272 19.751 5.25027 19.751C3.85781 19.751 2.52238 19.1978 1.53777 18.2132C0.553152 17.2286 0 15.8932 0 14.5007C0 13.1083 0.553152 11.7728 1.53777 10.7882L10.8471 1.35697C11.1916 0.993795 11.6052 0.703249 12.0637 0.502459C12.5222 0.301669 13.0163 0.194697 13.5168 0.187851C14.0172 0.181004 14.514 0.274421 14.9779 0.462594C15.4417 0.650767 15.8631 0.929889 16.2174 1.28351C16.5716 1.63712 16.8515 2.05808 17.0405 2.52156C17.2295 2.98504 17.3237 3.48167 17.3178 3.98216C17.3118 4.48266 17.2057 4.9769 17.0057 5.43575C16.8058 5.8946 16.516 6.30877 16.1534 6.65385L6.84402 16.0851C6.63593 16.2964 6.38781 16.4641 6.11416 16.5784C5.84051 16.6927 5.54682 16.7513 5.25027 16.7507C4.80446 16.7518 4.36837 16.6205 3.99734 16.3733C3.62631 16.1261 3.33707 15.7743 3.16632 15.3625C2.99556 14.9507 2.951 14.4974 3.03827 14.0602C3.12555 13.6231 3.34073 13.2217 3.65652 12.907L11.4659 4.97572C11.5335 4.89992 11.6157 4.83864 11.7077 4.79558C11.7997 4.75252 11.8994 4.72859 12.0009 4.72523C12.1024 4.72187 12.2035 4.73916 12.2981 4.77605C12.3928 4.81293 12.4789 4.86865 12.5513 4.93982C12.6238 5.01098 12.681 5.09612 12.7196 5.19007C12.7581 5.28401 12.7772 5.38481 12.7756 5.48634C12.7741 5.58788 12.7519 5.68804 12.7105 5.78076C12.6691 5.87347 12.6092 5.95681 12.5346 6.02572L4.72527 13.9663C4.65418 14.036 4.59767 14.1192 4.55904 14.2109C4.52041 14.3027 4.50043 14.4012 4.50027 14.5007C4.50302 14.6483 4.5487 14.7918 4.63174 14.9138C4.71477 15.0358 4.83155 15.131 4.96781 15.1877C5.10406 15.2444 5.25388 15.2601 5.39895 15.233C5.54401 15.2059 5.67804 15.1371 5.78464 15.0351L15.0846 5.59447C15.2959 5.38638 15.4636 5.13826 15.5779 4.86461C15.6922 4.59096 15.7508 4.29728 15.7503 4.00072C15.7514 3.55491 15.62 3.11882 15.3728 2.74779C15.1257 2.37676 14.7739 2.08752 14.3621 1.91677C13.9502 1.74602 13.497 1.70145 13.0598 1.78873C12.6226 1.876 12.2212 2.09118 11.9065 2.40697L2.60652 11.8476C2.24334 12.192 1.9528 12.6057 1.75201 13.0642C1.55122 13.5227 1.44425 14.0167 1.4374 14.5172C1.43055 15.0177 1.52397 15.5145 1.71214 15.9783C1.90032 16.4421 2.17944 16.8636 2.53305 17.2178C2.88667 17.5721 3.30763 17.8519 3.77111 18.0409C4.23459 18.2299 4.73121 18.3242 5.23171 18.3182C5.73221 18.3123 6.22645 18.2062 6.6853 18.0062C7.14414 17.8062 7.55831 17.5164 7.90339 17.1538L15.5909 9.46634C15.7331 9.32551 15.9251 9.2465 16.1253 9.2465C16.3254 9.2465 16.5174 9.32551 16.6596 9.46634Z" fill="#4D4D4D"/>
</svg>
